<svg xmlns="http://www.w3.org/2000/svg" xmlns:xlink="http://www.w3.org/1999/xlink" viewBox="0,0,256,256" width="100px" height="100px" fill-rule="nonzero"><g fill="#ffffff" fill-rule="nonzero" stroke="none" stroke-width="1" stroke-linecap="butt" stroke-linejoin="miter" stroke-miterlimit="10" stroke-dasharray="" stroke-dashoffset="0" font-family="none" font-weight="none" font-size="none" text-anchor="none" style="mix-blend-mode: normal"><g transform="scale(5.12,5.12)"><path d="M11.01563,3c-1.58333,0 -2.89615,0.62976 -3.74609,1.58594c-0.84994,0.95618 -1.25391,2.19184 -1.25391,3.41406c0,1.22222 0.40397,2.45788 1.25391,3.41406c0.84994,0.95618 2.16276,1.58594 3.74609,1.58594c1.58333,0 2.89811,-0.62976 3.74805,-1.58594c0.84994,-0.95618 1.25195,-2.19184 1.25195,-3.41406c0,-1.22222 -0.40201,-2.45788 -1.25195,-3.41406c-0.84994,-0.95618 -2.16471,-1.58594 -3.74805,-1.58594zM40.01563,3c-1.58333,0 -2.89615,0.62976 -3.74609,1.58594c-0.84994,0.95618 -1.25391,2.19184 -1.25391,3.41406c0,1.22222 0.40397,2.45788 1.25391,3.41406c0.84994,0.95618 2.16276,1.58594 3.74609,1.58594c1.58333,0 2.89811,-0.62976 3.74805,-1.58594c0.84994,-0.95618 1.25195,-2.19184 1.25195,-3.41406c0,-1.22222 -0.40201,-2.45788 -1.25195,-3.41406c-0.84994,-0.95618 -2.16471,-1.58594 -3.74805,-1.58594zM11.01563,5c1.08333,0 1.77051,0.37024 2.25391,0.91406c0.48339,0.54382 0.74609,1.30816 0.74609,2.08594c0,0.77778 -0.2627,1.54212 -0.74609,2.08594c-0.48339,0.54382 -1.17057,0.91406 -2.25391,0.91406c-1.08333,0 -1.76856,-0.37024 -2.25195,-0.91406c-0.48339,-0.54382 -0.74805,-1.30816 -0.74805,-2.08594c0,-0.77778 0.26465,-1.54212 0.74805,-2.08594c0.48339,-0.54382 1.16862,-0.91406 2.25195,-0.91406zM40.01563,5c1.08333,0 1.77051,0.37024 2.25391,0.91406c0.48339,0.54382 0.74609,1.30816 0.74609,2.08594c0,0.77778 -0.2627,1.54212 -0.74609,2.08594c-0.48339,0.54382 -1.17057,0.91406 -2.25391,0.91406c-1.08333,0 -1.76856,-0.37024 -2.25195,-0.91406c-0.48339,-0.54382 -0.74805,-1.30816 -0.74805,-2.08594c0,-0.77778 0.26465,-1.54212 0.74805,-2.08594c0.48339,-0.54382 1.16862,-0.91406 2.25195,-0.91406zM6.47656,14c-3.0243,0 -5.5,2.47675 -5.5,5.5v11.42969c-0.00082,0.02343 -0.00082,0.04688 0,0.07031c-0.00374,0.2757 0.1065,0.54072 0.30469,0.73242c0.36123,1.25127 1.33478,2.26758 2.69531,2.26758c0.35184,0 0.68511,-0.07394 1,-0.1875v9.6875c0,1.92119 1.57881,3.5 3.5,3.5c0.97919,0 1.8624,-0.41571 2.5,-1.07227c0.6376,0.65654 1.52083,1.07227 2.5,1.07227c1.92119,0 3.5,-1.57881 3.5,-3.5v-19.67578l0.88281,1.32422c0.99256,1.48884 2.99457,1.95981 4.54688,1.06836l4.0918,-2.34961c0.00655,-0.00383 0.01307,-0.00774 0.01953,-0.01172c0.83775,-0.50668 1.3163,-1.30313 1.46094,-2.05273c0.14421,-0.74737 0.02823,-1.43829 -0.32422,-2.01367c-0.40776,-0.67705 -1.06391,-1.18774 -1.83203,-1.36719c-0.76996,-0.17988 -1.60784,-0.0322 -2.38672,0.38086c-0.00721,0.00382 -0.01437,0.00773 -0.02148,0.01172l-2.05469,1.16016l-2.39062,-3.66992l-0.00195,-0.00391l-0.00195,-0.00195l-0.01758,-0.02734c-0.1028,-0.16175 -0.24991,-0.29056 -0.42383,-0.37109c-0.83639,-1.02525 -2.06553,-1.63179 -3.46875,-1.76953c-0.14598,-0.08312 -0.31055,-0.12812 -0.47852,-0.13086h-0.09961h-7.09961zM35.5,14c-3.0243,0 -5.5,2.47675 -5.5,5.5v11.5c-0.00374,0.2757 0.1065,0.54072 0.30469,0.73242c0.36123,1.25127 1.33478,2.26758 2.69531,2.26758c0.35184,0 0.68511,-0.07394 1,-0.1875v9.6875c0,1.92119 1.57881,3.5 3.5,3.5c0.97919,0 1.8624,-0.41571 2.5,-1.07227c0.6376,0.65656 1.52081,1.07227 2.5,1.07227c1.92119,0 3.5,-1.57881 3.5,-3.5v-9.6875c0.31489,0.11356 0.64816,0.1875 1,0.1875c1.36054,0 2.33408,-1.01631 2.69531,-2.26758c0.19819,-0.1917 0.30843,-0.45672 0.30469,-0.73242v-11.5c0,-3.02325 -2.4757,-5.5 -5.5,-5.5h-0.90039h-7.19922zM6.47656,16h0.90039h7.08594h0.01367c1.24935,0 2.32549,0.58475 2.77344,1.32813l0.00195,0.00195c0.0063,0.01119 0.01281,0.02226 0.01953,0.0332l2.92383,4.48828c0.28759,0.44172 0.86864,0.58442 1.32813,0.32617l2.84961,-1.60742c0.44112,-0.23394 0.7646,-0.2548 0.99414,-0.20117c0.22954,0.05362 0.40971,0.1756 0.57617,0.45313c0.00193,0.00327 0.00389,0.00652 0.00586,0.00977c0.02808,0.0456 0.11626,0.3334 0.06641,0.5918c-0.04986,0.25839 -0.16396,0.49738 -0.5332,0.7207l-4.07227,2.33789c-0.6557,0.37655 -1.46728,0.18581 -1.88672,-0.44336l-2.70313,-4.05469c-0.24226,-0.37472 -0.70344,-0.54362 -1.13041,-0.41399c-0.42696,0.12963 -0.7164,0.52643 -0.70943,0.97258c-0.00003,0.00456 -0.00003,0.00911 0,0.01367c-0.00232,0.02598 -0.00362,0.05204 -0.00391,0.07813v22.86523c0,0.84081 -0.65919,1.5 -1.5,1.5c-0.84081,0 -1.5,-0.65919 -1.5,-1.5v-11.5c0.0037,-0.2703 -0.10218,-0.53059 -0.29351,-0.72155c-0.19133,-0.19097 -0.45182,-0.29634 -0.72211,-0.29212c-0.55152,0.00862 -0.99193,0.46214 -0.98438,1.01367v11.42969v0.07031c0,0.84081 -0.65919,1.5 -1.5,1.5c-0.84081,0 -1.5,-0.65919 -1.5,-1.5v-12.5v-9c0.0051,-0.36064 -0.18438,-0.69608 -0.49587,-0.87789c-0.3115,-0.18181 -0.69676,-0.18181 -1.00825,0c-0.3115,0.18181 -0.50097,0.51725 -0.49587,0.87789v9c0,0.56503 -0.43497,1 -1,1c-0.56503,0 -1,-0.43497 -1,-1v-11.5c0,-1.93875 1.5603,-3.5 3.5,-3.5zM35.5,16h0.90039h7.19922h0.90039c1.9397,0 3.5,1.56125 3.5,3.5v11.5c0,0.56503 -0.43497,1 -1,1c-0.56503,0 -1,-0.43497 -1,-1v-9c0.0051,-0.36064 -0.18438,-0.69608 -0.49587,-0.87789c-0.3115,-0.18181 -0.69676,-0.18181 -1.00825,0c-0.3115,0.18181 -0.50097,0.51725 -0.49587,0.87789v21.5c0,0.84081 -0.65919,1.5 -1.5,1.5c-0.84081,0 -1.5,-0.65919 -1.5,-1.5v-11.5c0.0037,-0.2703 -0.10218,-0.53059 -0.29351,-0.72155c-0.19133,-0.19097 -0.45182,-0.29634 -0.72212,-0.29212c-0.55152,0.00862 -0.99193,0.46214 -0.98437,1.01367v11.5c0,0.84081 -0.65919,1.5 -1.5,1.5c-0.84081,0 -1.5,-0.65919 -1.5,-1.5v-21.5c0.0037,-0.2703 -0.10218,-0.53059 -0.29351,-0.72155c-0.19133,-0.19097 -0.45182,-0.29634 -0.72212,-0.29212c-0.55152,0.00862 -0.99193,0.46214 -0.98437,1.01367v9c0,0.56503 -0.43497,1 -1,1c-0.56503,0 -1,-0.43497 -1,-1v-11.5c0,-1.93875 1.5603,-3.5 3.5,-3.5z"></path></g></g></svg>